<svg width="237" height="501" viewBox="0 0 237 501" fill="none" xmlns="http://www.w3.org/2000/svg">
<path d="M-111.979 248.576C-31.1704 418.574 96.1289 397.161 155.319 323.556C162.326 314.842 167.926 304.725 169.303 293.628C169.349 293.257 169.39 292.888 169.428 292.522C174.389 243.617 106.174 226.364 57.3633 220.551C20.1248 216.115 -21.583 209.447 -57.2704 189.485C-66.6737 184.225 -77.664 180.964 -87.8297 184.534C-104.373 190.344 -111.845 200.43 -115.946 218.636C-118.211 228.69 -116.404 239.268 -111.979 248.576Z" fill="#83BF04" fill-opacity="0.5"/>
<path d="M-59.7581 66.6642C120.449 110.473 118.053 247.109 51.1217 317.673C23.3693 336.262 4.10345 333.161 -32.9432 309.207C-35.4826 307.566 -37.6337 305.37 -39.0884 302.719C-57.6915 268.817 -68.481 205.257 -100.722 155.272C-117.316 129.545 -142.264 97.3701 -119.954 76.4039C-104.896 62.2524 -79.8375 61.7829 -59.7581 66.6642Z" fill="#006CCF" fill-opacity="0.5"/>
</svg>
